<?xml version="1.0" encoding="UTF-8" standalone="no"?>
<svg
   xmlns:osb="http://www.openswatchbook.org/uri/2009/osb"
   xmlns:dc="http://purl.org/dc/elements/1.1/"
   xmlns:cc="http://creativecommons.org/ns#"
   xmlns:rdf="http://www.w3.org/1999/02/22-rdf-syntax-ns#"
   xmlns:svg="http://www.w3.org/2000/svg"
   xmlns="http://www.w3.org/2000/svg"
   xmlns:sodipodi="http://sodipodi.sourceforge.net/DTD/sodipodi-0.dtd"
   xmlns:inkscape="http://www.inkscape.org/namespaces/inkscape"
   width="24"
   height="24"
   viewBox="0 0 24 24"
   fill="none"
   stroke="currentColor"
   stroke-width="2"
   stroke-linecap="round"
   stroke-linejoin="round"
   id="svg2"
   version="1.1"
   inkscape:version="0.92.4 (5da689c313, 2019-01-14)"
   sodipodi:docname="RTZroute_pi_toggled.svg">
  <metadata
     id="metadata14">
    <rdf:RDF>
      <cc:Work
         rdf:about="">
        <dc:format>image/svg+xml</dc:format>
        <dc:type
           rdf:resource="http://purl.org/dc/dcmitype/StillImage" />
        <dc:title />
      </cc:Work>
    </rdf:RDF>
  </metadata>
  <defs
     id="defs12">
    <linearGradient
       id="linearGradient3754"
       osb:paint="gradient">
      <stop
         style="stop-color:#000000;stop-opacity:1;"
         offset="0"
         id="stop3756" />
      <stop
         style="stop-color:#000000;stop-opacity:0;"
         offset="1"
         id="stop3758" />
    </linearGradient>
  </defs>
  <sodipodi:namedview
     pagecolor="#ffffff"
     bordercolor="#666666"
     borderopacity="1"
     objecttolerance="10"
     gridtolerance="10"
     guidetolerance="10"
     inkscape:pageopacity="0"
     inkscape:pageshadow="2"
     inkscape:window-width="1512"
     inkscape:window-height="797"
     id="namedview10"
     showgrid="false"
     inkscape:zoom="19.666666"
     inkscape:cx="10.760454"
     inkscape:cy="15.535438"
     inkscape:window-x="0"
     inkscape:window-y="0"
     inkscape:window-maximized="0"
     inkscape:current-layer="svg2" />
  <rect
     style="fill:#898989;fill-opacity:1;stroke:#282828;stroke-width:0;stroke-linejoin:miter;stroke-miterlimit:4;stroke-dasharray:none;stroke-opacity:1"
     id="rect4139"
     width="24.017662"
     height="24.16148"
     x="0.071909167"
     y="-0.017661467" />
  <path
     style="fill:#b3b3b3;fill-opacity:1;stroke:#b4b4b4;stroke-width:0;stroke-linecap:round;stroke-miterlimit:0;stroke-dasharray:none;stroke-dashoffset:0;stroke-opacity:1;paint-order:stroke fill markers"
     d="m 22.120991,5.3808733 c 0.05191,-0.020772 0.113931,-0.018218 0.137826,0.00568 0.02389,0.023895 -0.01858,0.040891 -0.09438,0.037768 -0.08377,-0.00345 -0.100809,-0.02049 -0.04344,-0.043445 z"
     id="path912"
     inkscape:connector-curvature="0" />
  <path
     style="fill:#b3b3b3;fill-opacity:1;stroke:#b4b4b4;stroke-width:0;stroke-linecap:round;stroke-miterlimit:0;stroke-dasharray:none;stroke-dashoffset:0;stroke-opacity:1;paint-order:stroke fill markers"
     d="m 22.118804,5.3688106 c 0.03671,-0.014688 0.08056,-0.012882 0.09746,0.00401 0.0169,0.016896 -0.01314,0.028914 -0.06674,0.026706 -0.05924,-0.00244 -0.07128,-0.014488 -0.03072,-0.03072 z"
     id="path918"
     inkscape:connector-curvature="0" />
  <path
     style="opacity:0;fill:#898989;fill-opacity:1;fill-rule:nonzero;stroke:none;stroke-width:0;stroke-linecap:square;stroke-miterlimit:4;stroke-dasharray:none;stroke-dashoffset:0;stroke-opacity:1;paint-order:fill markers stroke"
     d="M 4.1795189,22.17005 C 3.6617061,22.044739 3.0641961,21.702408 2.6735754,21.307251 2.0412878,20.667621 1.7335058,19.987965 1.6907403,19.136917 1.6569414,18.464308 1.73934,18.043833 2.017792,17.467994 2.209346,17.07186 2.3222489,16.915842 2.6664156,16.571675 c 0.3344968,-0.334497 0.5013974,-0.457024 0.8460466,-0.62111 0.5633389,-0.268203 0.8813316,-0.338916 1.4971437,-0.332922 0.5730246,0.0056 1.1140573,0.149652 1.5870296,0.422621 0.3542837,0.204469 0.8798359,0.702849 1.1165623,1.058832 0.239816,0.360631 0.4712822,1.003242 0.5097519,1.415207 l 0.029244,0.313173 -0.3755314,0.03113 c -0.2065423,0.01712 -0.4899381,0.03812 -0.6297686,0.04667 -0.1398305,0.0085 0.023391,0.01966 0.3627137,0.0247 0.7234978,0.01075 0.7214736,0.0089 0.6037007,0.564382 -0.1610954,0.759876 -0.4515285,1.305065 -0.96738,1.815926 -0.4022985,0.398407 -0.9673391,0.716539 -1.5224293,0.857166 -0.3659389,0.09271 -1.1660739,0.09406 -1.5439799,0.0026 z"
     id="path839"
     inkscape:connector-curvature="0" />
  <path
     style="opacity:0;fill:#898989;fill-opacity:1;fill-rule:nonzero;stroke:none;stroke-width:0;stroke-linecap:square;stroke-miterlimit:4;stroke-dasharray:none;stroke-dashoffset:0;stroke-opacity:1;paint-order:fill markers stroke"
     d="M 4.1795189,22.17005 C 3.6617061,22.044739 3.0641961,21.702408 2.6735754,21.307251 2.0412878,20.667621 1.7335058,19.987965 1.6907403,19.136917 1.6569414,18.464308 1.73934,18.043833 2.017792,17.467994 2.209346,17.07186 2.3222489,16.915842 2.6664156,16.571675 c 0.3344968,-0.334497 0.5013974,-0.457024 0.8460466,-0.62111 0.5633389,-0.268203 0.8813316,-0.338916 1.4971437,-0.332922 0.5730246,0.0056 1.1140573,0.149652 1.5870296,0.422621 0.3542837,0.204469 0.8798359,0.702849 1.1165623,1.058832 0.239816,0.360631 0.4712822,1.003242 0.5097519,1.415207 l 0.029244,0.313173 -0.3755314,0.03113 c -0.2065423,0.01712 -0.4899381,0.03812 -0.6297686,0.04667 -0.1398305,0.0085 0.023391,0.01966 0.3627137,0.0247 0.7234978,0.01075 0.7214736,0.0089 0.6037007,0.564382 -0.1610954,0.759876 -0.4515285,1.305065 -0.96738,1.815926 -0.4022985,0.398407 -0.9673391,0.716539 -1.5224293,0.857166 -0.3659389,0.09271 -1.1660739,0.09406 -1.5439799,0.0026 z"
     id="path841"
     inkscape:connector-curvature="0" />
  <path
     style="opacity:0;fill:#898989;fill-opacity:1;fill-rule:nonzero;stroke:none;stroke-width:0;stroke-linecap:square;stroke-miterlimit:4;stroke-dasharray:none;stroke-dashoffset:0;stroke-opacity:1;paint-order:fill markers stroke"
     d="M 4.1795189,22.17005 C 3.6617061,22.044739 3.0641961,21.702408 2.6735754,21.307251 2.0412878,20.667621 1.7335058,19.987965 1.6907403,19.136917 1.6569414,18.464308 1.73934,18.043833 2.017792,17.467994 2.209346,17.07186 2.3222489,16.915842 2.6664156,16.571675 c 0.3344968,-0.334497 0.5013974,-0.457024 0.8460466,-0.62111 0.5633389,-0.268203 0.8813316,-0.338916 1.4971437,-0.332922 0.5730246,0.0056 1.1140573,0.149652 1.5870296,0.422621 0.3542837,0.204469 0.8798359,0.702849 1.1165623,1.058832 0.239816,0.360631 0.4712822,1.003242 0.5097519,1.415207 l 0.029244,0.313173 -0.3755314,0.03113 c -0.2065423,0.01712 -0.4899381,0.03812 -0.6297686,0.04667 -0.1398305,0.0085 0.023391,0.01966 0.3627137,0.0247 0.7234978,0.01075 0.7214736,0.0089 0.6037007,0.564382 -0.1610954,0.759876 -0.4515285,1.305065 -0.96738,1.815926 -0.4022985,0.398407 -0.9673391,0.716539 -1.5224293,0.857166 -0.3659389,0.09271 -1.1660739,0.09406 -1.5439799,0.0026 z"
     id="path843"
     inkscape:connector-curvature="0" />
  <path
     style="opacity:0;fill:#898989;fill-opacity:1;fill-rule:nonzero;stroke:none;stroke-width:0;stroke-linecap:square;stroke-miterlimit:4;stroke-dasharray:none;stroke-dashoffset:0;stroke-opacity:1;paint-order:fill markers stroke"
     d="M 4.1795189,22.17005 C 3.6617061,22.044739 3.0641961,21.702408 2.6735754,21.307251 2.0412878,20.667621 1.7335058,19.987965 1.6907403,19.136917 1.6569414,18.464308 1.73934,18.043833 2.017792,17.467994 2.209346,17.07186 2.3222489,16.915842 2.6664156,16.571675 c 0.3344968,-0.334497 0.5013974,-0.457024 0.8460466,-0.62111 0.5633389,-0.268203 0.8813316,-0.338916 1.4971437,-0.332922 0.5730246,0.0056 1.1140573,0.149652 1.5870296,0.422621 0.3542837,0.204469 0.8798359,0.702849 1.1165623,1.058832 0.239816,0.360631 0.4712822,1.003242 0.5097519,1.415207 l 0.029244,0.313173 -0.3755314,0.03113 c -0.2065423,0.01712 -0.4899381,0.03812 -0.6297686,0.04667 -0.1398305,0.0085 0.023391,0.01966 0.3627137,0.0247 0.7234978,0.01075 0.7214736,0.0089 0.6037007,0.564382 -0.1610954,0.759876 -0.4515285,1.305065 -0.96738,1.815926 -0.4022985,0.398407 -0.9673391,0.716539 -1.5224293,0.857166 -0.3659389,0.09271 -1.1660739,0.09406 -1.5439799,0.0026 z"
     id="path845"
     inkscape:connector-curvature="0" />
  <path
     style="opacity:0;fill:#898989;fill-opacity:1;fill-rule:nonzero;stroke:none;stroke-width:0;stroke-linecap:square;stroke-miterlimit:4;stroke-dasharray:none;stroke-dashoffset:0;stroke-opacity:1;paint-order:fill markers stroke"
     d="M 4.1795189,22.17005 C 3.6617061,22.044739 3.0641961,21.702408 2.6735754,21.307251 2.0412878,20.667621 1.7335058,19.987965 1.6907403,19.136917 1.6569414,18.464308 1.73934,18.043833 2.017792,17.467994 2.209346,17.07186 2.3222489,16.915842 2.6664156,16.571675 c 0.3344968,-0.334497 0.5013974,-0.457024 0.8460466,-0.62111 0.5633389,-0.268203 0.8813316,-0.338916 1.4971437,-0.332922 0.5730246,0.0056 1.1140573,0.149652 1.5870296,0.422621 0.3542837,0.204469 0.8798359,0.702849 1.1165623,1.058832 0.239816,0.360631 0.4712822,1.003242 0.5097519,1.415207 l 0.029244,0.313173 -0.3755314,0.03113 c -0.2065423,0.01712 -0.4899381,0.03812 -0.6297686,0.04667 -0.1398305,0.0085 0.023391,0.01966 0.3627137,0.0247 0.7234978,0.01075 0.7214736,0.0089 0.6037007,0.564382 -0.1610954,0.759876 -0.4515285,1.305065 -0.96738,1.815926 -0.4022985,0.398407 -0.9673391,0.716539 -1.5224293,0.857166 -0.3659389,0.09271 -1.1660739,0.09406 -1.5439799,0.0026 z"
     id="path847"
     inkscape:connector-curvature="0" />
  <path
     style="opacity:0;fill:#898989;fill-opacity:1;fill-rule:nonzero;stroke:none;stroke-width:0;stroke-linecap:square;stroke-miterlimit:4;stroke-dasharray:none;stroke-dashoffset:0;stroke-opacity:1;paint-order:fill markers stroke"
     d="M 18.407911,8.737802 C 17.425546,8.5479834 16.50182,7.8546228 16.077097,6.9882645 15.769021,6.3598452 15.698254,6.0234496 15.725363,5.3162766 c 0.01583,-0.4130032 0.05494,-0.687762 0.130878,-0.9195113 0.418914,-1.2784368 1.602984,-2.1891774 2.953284,-2.271551 0.571857,-0.034886 1.073133,0.071435 1.628971,0.3455031 0.557511,0.274894 1.165877,0.8640395 1.439933,1.3944411 0.221563,0.4288057 0.406079,1.068631 0.38425,1.3324099 l -0.01578,0.1907223 -0.330509,-0.00897 -0.330508,-0.00897 0.317638,0.044007 c 0.1747,0.024204 0.336812,0.055858 0.360248,0.070342 0.07148,0.044175 -0.0399,0.6822469 -0.191685,1.0981434 -0.357222,0.9788116 -1.063752,1.6762694 -2.045459,2.0191938 -0.294726,0.1029519 -0.490256,0.1334268 -0.932268,0.1453017 -0.307627,0.00826 -0.616525,0.00397 -0.686441,-0.00954 z m 2.962564,-3.3090332 c -0.06254,-0.012069 -0.176946,-0.012382 -0.254237,-6.941e-4 -0.07729,0.011687 -0.02612,0.021562 0.113707,0.021944 0.139831,3.814e-4 0.203069,-0.00918 0.14053,-0.02125 z"
     id="path849"
     inkscape:connector-curvature="0" />
  <path
     style="opacity:0;fill:#898989;fill-opacity:1;fill-rule:nonzero;stroke:none;stroke-width:0;stroke-linecap:square;stroke-miterlimit:4;stroke-dasharray:none;stroke-dashoffset:0;stroke-opacity:1;paint-order:fill markers stroke"
     d="M 4.1795189,22.17005 C 3.6617061,22.044739 3.0641961,21.702408 2.6735754,21.307251 2.0412878,20.667621 1.7335058,19.987965 1.6907403,19.136917 1.6569414,18.464308 1.73934,18.043833 2.017792,17.467994 2.209346,17.07186 2.3222489,16.915842 2.6664156,16.571675 c 0.3344968,-0.334497 0.5013974,-0.457024 0.8460466,-0.62111 0.5633389,-0.268203 0.8813316,-0.338916 1.4971437,-0.332922 0.5730246,0.0056 1.1140573,0.149652 1.5870296,0.422621 0.3542837,0.204469 0.8798359,0.702849 1.1165623,1.058832 0.239816,0.360631 0.4712822,1.003242 0.5097519,1.415207 l 0.029244,0.313173 -0.3755314,0.03113 c -0.2065423,0.01712 -0.4899381,0.03812 -0.6297686,0.04667 -0.1398305,0.0085 0.023391,0.01966 0.3627137,0.0247 0.7234978,0.01075 0.7214736,0.0089 0.6037007,0.564382 -0.1610954,0.759876 -0.4515285,1.305065 -0.96738,1.815926 -0.4022985,0.398407 -0.9673391,0.716539 -1.5224293,0.857166 -0.3659389,0.09271 -1.1660739,0.09406 -1.5439799,0.0026 z"
     id="path851"
     inkscape:connector-curvature="0" />
  <path
     style="opacity:0;fill:#898989;fill-opacity:1;fill-rule:nonzero;stroke:none;stroke-width:0;stroke-linecap:square;stroke-miterlimit:4;stroke-dasharray:none;stroke-dashoffset:0;stroke-opacity:1;paint-order:fill markers stroke"
     d="M 18.407911,8.737802 C 17.425546,8.5479834 16.50182,7.8546228 16.077097,6.9882645 15.769021,6.3598452 15.698254,6.0234496 15.725363,5.3162766 c 0.01583,-0.4130032 0.05494,-0.687762 0.130878,-0.9195113 0.418914,-1.2784368 1.602984,-2.1891774 2.953284,-2.271551 0.571857,-0.034886 1.073133,0.071435 1.628971,0.3455031 0.557511,0.274894 1.165877,0.8640395 1.439933,1.3944411 0.221563,0.4288057 0.406079,1.068631 0.38425,1.3324099 l -0.01578,0.1907223 -0.330509,-0.00897 -0.330508,-0.00897 0.317638,0.044007 c 0.1747,0.024204 0.336812,0.055858 0.360248,0.070342 0.07148,0.044175 -0.0399,0.6822469 -0.191685,1.0981434 -0.357222,0.9788116 -1.063752,1.6762694 -2.045459,2.0191938 -0.294726,0.1029519 -0.490256,0.1334268 -0.932268,0.1453017 -0.307627,0.00826 -0.616525,0.00397 -0.686441,-0.00954 z m 2.962564,-3.3090332 c -0.06254,-0.012069 -0.176946,-0.012382 -0.254237,-6.941e-4 -0.07729,0.011687 -0.02612,0.021562 0.113707,0.021944 0.139831,3.814e-4 0.203069,-0.00918 0.14053,-0.02125 z"
     id="path853"
     inkscape:connector-curvature="0" />
  <path
     style="opacity:0;fill:#898989;fill-opacity:1;fill-rule:nonzero;stroke:none;stroke-width:0;stroke-linecap:square;stroke-miterlimit:4;stroke-dasharray:none;stroke-dashoffset:0;stroke-opacity:1;paint-order:fill markers stroke"
     d="M 18.407911,8.737802 C 17.425546,8.5479834 16.50182,7.8546228 16.077097,6.9882645 15.769021,6.3598452 15.698254,6.0234496 15.725363,5.3162766 c 0.01583,-0.4130032 0.05494,-0.687762 0.130878,-0.9195113 0.418914,-1.2784368 1.602984,-2.1891774 2.953284,-2.271551 0.571857,-0.034886 1.073133,0.071435 1.628971,0.3455031 0.557511,0.274894 1.165877,0.8640395 1.439933,1.3944411 0.221563,0.4288057 0.406079,1.068631 0.38425,1.3324099 l -0.01578,0.1907223 -0.330509,-0.00897 -0.330508,-0.00897 0.317638,0.044007 c 0.1747,0.024204 0.336812,0.055858 0.360248,0.070342 0.07148,0.044175 -0.0399,0.6822469 -0.191685,1.0981434 -0.357222,0.9788116 -1.063752,1.6762694 -2.045459,2.0191938 -0.294726,0.1029519 -0.490256,0.1334268 -0.932268,0.1453017 -0.307627,0.00826 -0.616525,0.00397 -0.686441,-0.00954 z m 2.962564,-3.3090332 c -0.06254,-0.012069 -0.176946,-0.012382 -0.254237,-6.941e-4 -0.07729,0.011687 -0.02612,0.021562 0.113707,0.021944 0.139831,3.814e-4 0.203069,-0.00918 0.14053,-0.02125 z"
     id="path855"
     inkscape:connector-curvature="0" />
  <path
     style="opacity:0;fill:#898989;fill-opacity:1;fill-rule:nonzero;stroke:none;stroke-width:0;stroke-linecap:square;stroke-miterlimit:4;stroke-dasharray:none;stroke-dashoffset:0;stroke-opacity:1;paint-order:fill markers stroke"
     d="M 18.407911,8.737802 C 17.425546,8.5479834 16.50182,7.8546228 16.077097,6.9882645 15.769021,6.3598452 15.698254,6.0234496 15.725363,5.3162766 c 0.01583,-0.4130032 0.05494,-0.687762 0.130878,-0.9195113 0.418914,-1.2784368 1.602984,-2.1891774 2.953284,-2.271551 0.571857,-0.034886 1.073133,0.071435 1.628971,0.3455031 0.557511,0.274894 1.165877,0.8640395 1.439933,1.3944411 0.221563,0.4288057 0.406079,1.068631 0.38425,1.3324099 l -0.01578,0.1907223 -0.330509,-0.00897 -0.330508,-0.00897 0.317638,0.044007 c 0.1747,0.024204 0.336812,0.055858 0.360248,0.070342 0.07148,0.044175 -0.0399,0.6822469 -0.191685,1.0981434 -0.357222,0.9788116 -1.063752,1.6762694 -2.045459,2.0191938 -0.294726,0.1029519 -0.490256,0.1334268 -0.932268,0.1453017 -0.307627,0.00826 -0.616525,0.00397 -0.686441,-0.00954 z m 2.962564,-3.3090332 c -0.06254,-0.012069 -0.176946,-0.012382 -0.254237,-6.941e-4 -0.07729,0.011687 -0.02612,0.021562 0.113707,0.021944 0.139831,3.814e-4 0.203069,-0.00918 0.14053,-0.02125 z"
     id="path857"
     inkscape:connector-curvature="0" />
  <path
     style="opacity:0;fill:#898989;fill-opacity:1;fill-rule:nonzero;stroke:none;stroke-width:0;stroke-linecap:square;stroke-miterlimit:4;stroke-dasharray:none;stroke-dashoffset:0;stroke-opacity:1;paint-order:fill markers stroke"
     d="M 18.407911,8.737802 C 17.425546,8.5479834 16.50182,7.8546228 16.077097,6.9882645 15.769021,6.3598452 15.698254,6.0234496 15.725363,5.3162766 c 0.01583,-0.4130032 0.05494,-0.687762 0.130878,-0.9195113 0.418914,-1.2784368 1.602984,-2.1891774 2.953284,-2.271551 0.571857,-0.034886 1.073133,0.071435 1.628971,0.3455031 0.557511,0.274894 1.165877,0.8640395 1.439933,1.3944411 0.221563,0.4288057 0.406079,1.068631 0.38425,1.3324099 l -0.01578,0.1907223 -0.330509,-0.00897 -0.330508,-0.00897 0.317638,0.044007 c 0.1747,0.024204 0.336812,0.055858 0.360248,0.070342 0.07148,0.044175 -0.0399,0.6822469 -0.191685,1.0981434 -0.357222,0.9788116 -1.063752,1.6762694 -2.045459,2.0191938 -0.294726,0.1029519 -0.490256,0.1334268 -0.932268,0.1453017 -0.307627,0.00826 -0.616525,0.00397 -0.686441,-0.00954 z m 2.962564,-3.3090332 c -0.06254,-0.012069 -0.176946,-0.012382 -0.254237,-6.941e-4 -0.07729,0.011687 -0.02612,0.021562 0.113707,0.021944 0.139831,3.814e-4 0.203069,-0.00918 0.14053,-0.02125 z"
     id="path859"
     inkscape:connector-curvature="0" />
  <path
     style="opacity:0;fill:#898989;fill-opacity:1;fill-rule:nonzero;stroke:none;stroke-width:0;stroke-linecap:square;stroke-miterlimit:4;stroke-dasharray:none;stroke-dashoffset:0;stroke-opacity:1;paint-order:fill markers stroke"
     d="M 18.407911,8.737802 C 17.425546,8.5479834 16.50182,7.8546228 16.077097,6.9882645 15.769021,6.3598452 15.698254,6.0234496 15.725363,5.3162766 c 0.01583,-0.4130032 0.05494,-0.687762 0.130878,-0.9195113 0.418914,-1.2784368 1.602984,-2.1891774 2.953284,-2.271551 0.571857,-0.034886 1.073133,0.071435 1.628971,0.3455031 0.557511,0.274894 1.165877,0.8640395 1.439933,1.3944411 0.221563,0.4288057 0.406079,1.068631 0.38425,1.3324099 l -0.01578,0.1907223 -0.330509,-0.00897 -0.330508,-0.00897 0.317638,0.044007 c 0.1747,0.024204 0.336812,0.055858 0.360248,0.070342 0.07148,0.044175 -0.0399,0.6822469 -0.191685,1.0981434 -0.357222,0.9788116 -1.063752,1.6762694 -2.045459,2.0191938 -0.294726,0.1029519 -0.490256,0.1334268 -0.932268,0.1453017 -0.307627,0.00826 -0.616525,0.00397 -0.686441,-0.00954 z m 2.962564,-3.3090332 c -0.06254,-0.012069 -0.176946,-0.012382 -0.254237,-6.941e-4 -0.07729,0.011687 -0.02612,0.021562 0.113707,0.021944 0.139831,3.814e-4 0.203069,-0.00918 0.14053,-0.02125 z"
     id="path861"
     inkscape:connector-curvature="0" />
  <path
     style="opacity:0;fill:#898989;fill-opacity:1;fill-rule:nonzero;stroke:none;stroke-width:0;stroke-linecap:square;stroke-miterlimit:4;stroke-dasharray:none;stroke-dashoffset:0;stroke-opacity:1;paint-order:fill markers stroke"
     d="M 4.1706228,22.164343 C 3.6233302,22.021114 3.0609851,21.69916 2.6735754,21.307251 2.0320136,20.658239 1.7316847,19.987057 1.6904956,19.11024 1.6427734,18.094351 1.9552089,17.28362 2.6701175,16.568243 3.0010281,16.237116 3.168452,16.114347 3.5124622,15.950565 c 0.5633389,-0.268203 0.8813316,-0.338916 1.4971437,-0.332922 0.8534633,0.0083 1.5454747,0.288796 2.1823465,0.884558 0.5644495,0.528014 0.965641,1.312217 1.0313593,2.015979 l 0.029813,0.319264 -0.1471835,0.0067 c -0.080951,0.0037 -0.5018441,0.02249 -0.9353187,0.04175 l -0.7881356,0.03502 0.9279661,0.0091 0.9279661,0.0091 v 0.220679 c 0,0.338749 -0.1810281,0.97061 -0.3933371,1.372907 -0.2848134,0.539683 -0.8405792,1.079075 -1.3880451,1.347152 -0.2367652,0.115936 -0.5668574,0.245343 -0.7335381,0.28757 -0.3792101,0.09607 -1.1800384,0.09447 -1.5528764,-0.0031 z"
     id="path865"
     inkscape:connector-curvature="0" />
  <path
     style="opacity:0;fill:#898989;fill-opacity:1;fill-rule:nonzero;stroke:none;stroke-width:0;stroke-linecap:square;stroke-miterlimit:4;stroke-dasharray:none;stroke-dashoffset:0;stroke-opacity:1;paint-order:fill markers stroke"
     d="M 18.407911,8.737802 C 17.425546,8.5479834 16.50182,7.8546228 16.077097,6.9882645 15.769021,6.3598452 15.698254,6.0234496 15.725363,5.3162766 c 0.02603,-0.6790534 0.132765,-1.0692247 0.431202,-1.5762681 0.692605,-1.1767327 2.102933,-1.8193953 3.424091,-1.5603001 1.286713,0.2523402 2.332334,1.2679246 2.615405,2.5402769 0.04623,0.2077997 0.07658,0.4387982 0.06744,0.5133299 l -0.01661,0.1355123 -0.991526,0.027003 c -0.545339,0.014852 -1.002966,0.039567 -1.016949,0.054923 -0.01398,0.015356 0.375,0.014717 0.864407,-0.00142 0.489407,-0.016137 0.95576,-0.01607 1.036341,1.475e-4 l 0.14651,0.029489 -0.02994,0.3205987 c -0.03859,0.4132778 -0.247914,1.0340188 -0.47442,1.4068879 -0.230095,0.378776 -0.73292,0.881758 -1.096109,1.0964497 -0.509607,0.3012438 -0.961642,0.4275265 -1.59086,0.4444307 -0.307627,0.00826 -0.616525,0.00397 -0.686441,-0.00954 z"
     id="path867"
     inkscape:connector-curvature="0" />
  <path
     style="opacity:0;fill:#898989;fill-opacity:1;fill-rule:nonzero;stroke:none;stroke-width:0;stroke-linecap:square;stroke-miterlimit:4;stroke-dasharray:none;stroke-dashoffset:0;stroke-opacity:1;paint-order:fill markers stroke"
     d="M 18.407911,8.737802 C 17.425546,8.5479834 16.50182,7.8546228 16.077097,6.9882645 15.769021,6.3598452 15.698254,6.0234496 15.725363,5.3162766 c 0.02603,-0.6790534 0.132765,-1.0692247 0.431202,-1.5762681 0.692605,-1.1767327 2.102933,-1.8193953 3.424091,-1.5603001 1.286713,0.2523402 2.332334,1.2679246 2.615405,2.5402769 0.04623,0.2077997 0.07658,0.4387982 0.06744,0.5133299 l -0.01661,0.1355123 -0.991526,0.027003 c -0.545339,0.014852 -1.002966,0.039567 -1.016949,0.054923 -0.01398,0.015356 0.375,0.014717 0.864407,-0.00142 0.489407,-0.016137 0.95576,-0.01607 1.036341,1.475e-4 l 0.14651,0.029489 -0.02994,0.3205987 c -0.03859,0.4132778 -0.247914,1.0340188 -0.47442,1.4068879 -0.230095,0.378776 -0.73292,0.881758 -1.096109,1.0964497 -0.509607,0.3012438 -0.961642,0.4275265 -1.59086,0.4444307 -0.307627,0.00826 -0.616525,0.00397 -0.686441,-0.00954 z"
     id="path870"
     inkscape:connector-curvature="0" />
  <path
     style="opacity:1;vector-effect:none;fill:none;fill-opacity:1;stroke:#b4b4b4;stroke-width:1.77699995;stroke-linecap:butt;stroke-linejoin:miter;stroke-miterlimit:4;stroke-dasharray:none;stroke-dashoffset:0;stroke-opacity:1"
     d="M 15.76461,6.7904538 1.472679,18.1248"
     id="path832-8"
     inkscape:connector-curvature="0" />
  <path
     style="opacity:1;vector-effect:none;fill:none;fill-opacity:1;stroke:#b4b4b4;stroke-width:1.77738535;stroke-linecap:butt;stroke-linejoin:miter;stroke-miterlimit:4;stroke-dasharray:none;stroke-dashoffset:0;stroke-opacity:1"
     d="m 17.673512,7.1626625 5.788571,6.7763685"
     id="path832"
     inkscape:connector-curvature="0" />
  <path
     style="fill:#b3b3b3;fill-opacity:1;stroke:#b4b4b4;stroke-width:0;stroke-linecap:round;stroke-miterlimit:0;stroke-dasharray:none;stroke-dashoffset:0;stroke-opacity:1;paint-order:stroke fill markers"
     d="m 15.965055,12.642627 c -1.212902,-0.157729 -2.25156,-1.034864 -2.685816,-2.268142 -0.134705,-0.3825602 -0.180693,-1.1862642 -0.09645,-1.6856842 0.132007,-0.782629 0.709626,-1.643385 1.413915,-2.106989 0.556805,-0.366521 0.962735,-0.50164 1.597459,-0.531732 0.700683,-0.03322 1.063018,0.03801 1.661939,0.32669 0.786239,0.378975 1.375802,1.054056 1.663709,1.905035 0.06897,0.203848 0.139061,0.501387 0.155765,0.661198 l 0.03037,0.290565 -0.222914,0.03008 c -0.122602,0.01654 -0.371641,0.03688 -0.553421,0.04519 -0.200928,0.0092 -0.11331,0.01895 0.223477,0.0249 l 0.553984,0.0098 -0.02942,0.343221 c -0.133933,1.5622122 -1.455759,2.8472222 -3.061595,2.9763242 -0.167797,0.01349 -0.460743,0.0043 -0.650992,-0.02046 z"
     id="path926"
     inkscape:connector-curvature="0" />
</svg>
